<svg width="30" height="30" viewBox="0 0 30 30" fill="none" xmlns="http://www.w3.org/2000/svg">
<path d="M15 28.8158C22.6302 28.8158 28.8158 22.6302 28.8158 15C28.8158 7.36974 22.6302 1.1842 15 1.1842C7.36974 1.1842 1.1842 7.36974 1.1842 15C1.1842 22.6302 7.36974 28.8158 15 28.8158Z" stroke="black" stroke-width="2" stroke-miterlimit="10" stroke-linecap="round" stroke-linejoin="round"/>
<path d="M15 16.9736C17.7251 16.9736 19.9342 14.7645 19.9342 12.0394C19.9342 9.31435 17.7251 7.10522 15 7.10522C12.2749 7.10522 10.0658 9.31435 10.0658 12.0394C10.0658 14.7645 12.2749 16.9736 15 16.9736Z" stroke="black" stroke-width="2" stroke-miterlimit="10" stroke-linecap="round" stroke-linejoin="round"/>
<path d="M4.53943 23.9803C6.31574 19.9342 10.2631 17.0724 15 17.0724C19.7368 17.0724 23.7829 19.9342 25.4605 23.9803" stroke="black" stroke-width="2" stroke-miterlimit="10" stroke-linecap="round" stroke-linejoin="round"/>
</svg>
