<svg width="30" height="30" viewBox="0 0 30 30" fill="none" xmlns="http://www.w3.org/2000/svg">
<g clip-path="url(#clip0)">
<path d="M16.415 15.8491H15.283V26.0378H16.415V15.8491Z" fill="#2A2D41"/>
<path d="M26.4379 3.7961L25.6375 2.99561L17.147 11.486L17.9475 12.2865L26.4379 3.7961Z" fill="#2A2D41"/>
<path d="M15.1171 15.1171L14.3167 14.3167L2.99611 25.6372L3.7966 26.4377L15.1171 15.1171Z" fill="#2A2D41"/>
<path d="M13.985 10.9203L7.75879 4.69409L6.9583 5.49458L13.1845 11.7208L13.985 10.9203Z" fill="#2A2D41"/>
<path d="M25.8716 22.8067L17.3812 14.3163L16.5807 15.1168L25.0711 23.6072L25.8716 22.8067Z" fill="#2A2D41"/>
<path d="M27.1698 5.66038C28.7329 5.66038 30 4.39326 30 2.83019C30 1.26712 28.7329 0 27.1698 0C25.6067 0 24.3396 1.26712 24.3396 2.83019C24.3396 4.39326 25.6067 5.66038 27.1698 5.66038Z" fill="#2A2D41"/>
<path d="M15.8491 30C17.4122 30 18.6793 28.7329 18.6793 27.1698C18.6793 25.6067 17.4122 24.3396 15.8491 24.3396C14.286 24.3396 13.0189 25.6067 13.0189 27.1698C13.0189 28.7329 14.286 30 15.8491 30Z" fill="#2A2D41"/>
<path d="M2.83019 28.8679C4.39326 28.8679 5.66038 27.6008 5.66038 26.0377C5.66038 24.4746 4.39326 23.2075 2.83019 23.2075C1.26712 23.2075 0 24.4746 0 26.0377C0 27.6008 1.26712 28.8679 2.83019 28.8679Z" fill="#2A2D41"/>
<path d="M6.79247 6.22643C7.73032 6.22643 8.49059 5.46616 8.49059 4.52831C8.49059 3.59047 7.73032 2.8302 6.79247 2.8302C5.85463 2.8302 5.09436 3.59047 5.09436 4.52831C5.09436 5.46616 5.85463 6.22643 6.79247 6.22643Z" fill="#2A2D41"/>
<path d="M24.9056 24.3396C25.8435 24.3396 26.6038 23.5793 26.6038 22.6415C26.6038 21.7036 25.8435 20.9434 24.9056 20.9434C23.9678 20.9434 23.2075 21.7036 23.2075 22.6415C23.2075 23.5793 23.9678 24.3396 24.9056 24.3396Z" fill="#2A2D41"/>
<path d="M15.8491 17.5472C18.0374 17.5472 19.8114 15.7732 19.8114 13.5849C19.8114 11.3966 18.0374 9.62268 15.8491 9.62268C13.6608 9.62268 11.8868 11.3966 11.8868 13.5849C11.8868 15.7732 13.6608 17.5472 15.8491 17.5472Z" fill="#2A2D41"/>
</g>
<defs>
<clipPath id="clip0">
<rect width="30" height="30" fill="white"/>
</clipPath>
</defs>
</svg>
