<svg width="30" height="30" viewBox="0 0 30 30" fill="none" xmlns="http://www.w3.org/2000/svg">
<path d="M27.1758 11.7372L27.5952 7.72738L23.9118 6.08878L22.2738 2.40538L18.264 2.82418L15 0.458984L11.7366 2.82418L7.72738 2.40538L6.08878 6.08818L2.40538 7.72738L2.82418 11.7366L0.458984 15L2.82418 18.2628L2.40478 22.2726L6.08818 23.9112L7.72618 27.5946L11.736 27.1758L15 29.541L18.2634 27.1758L22.2726 27.5946L23.9112 23.9118L27.5946 22.2726L27.1758 18.2634L29.541 15L27.1758 11.7372ZM26.3106 21.531L23.0022 23.0028L21.5304 26.3106L17.931 25.935L15 28.059L12.069 25.935L8.46898 26.3106L6.99718 23.0022L3.68938 21.531L4.06498 17.9316L1.94098 15L4.06558 12.069L3.68998 8.46898L6.99838 6.99718L8.47018 3.68938L12.0696 4.06498L15 1.94098L17.931 4.06498L21.531 3.68938L23.0028 6.99778L26.3106 8.46898L25.935 12.0684L28.059 15L25.9344 17.931L26.3106 21.531Z" fill="#252738"/>
<path d="M12.6 18.9516L8.82423 15.1758L7.97583 16.0242L12.6 20.6484L23.2242 10.0242L22.3758 9.17578L12.6 18.9516Z" fill="#252738"/>
</svg>
