<svg width="30" height="30" viewBox="0 0 30 30" fill="none" xmlns="http://www.w3.org/2000/svg">
<path d="M22.7666 24.3634C22.8291 24.4495 22.9127 24.5181 23.0094 24.5626C23.106 24.6071 23.2125 24.626 23.3186 24.6176L23.379 24.6173C23.5188 24.6166 23.6589 24.6113 23.7936 24.6051L23.8023 24.6047C23.893 24.6005 23.9837 24.5963 24.0741 24.5941L24.1721 24.592C24.3792 24.5873 24.5863 24.5826 24.7934 24.5794C24.89 24.5779 24.982 24.5382 25.0494 24.469C25.1168 24.3998 25.1539 24.3067 25.1528 24.2101C25.1516 24.1135 25.1122 24.0213 25.0432 23.9537C24.9742 23.8861 24.8812 23.8486 24.7847 23.8495H24.7819C24.5897 23.8525 24.3974 23.8568 24.2052 23.8611L24.0578 23.8645C23.9665 23.8666 23.8752 23.8707 23.7839 23.8748L23.7683 23.8756C23.6214 23.8824 23.5022 23.886 23.3827 23.8874C23.4022 23.6314 23.3784 23.3739 23.3124 23.1258L23.3027 23.0961C23.2372 22.8791 23.093 22.6943 22.8983 22.5781C22.7036 22.462 22.4725 22.4228 22.2503 22.4683C22.2119 22.4761 22.1739 22.4861 22.1365 22.4982C22.1363 22.2707 22.0854 22.0462 21.9873 21.841C21.8892 21.6357 21.7466 21.455 21.5697 21.312C21.3929 21.1689 21.1863 21.0672 20.9651 21.0142C20.7439 20.9612 20.5137 20.9583 20.2912 21.0056C20.0688 21.053 19.8597 21.1495 19.6793 21.288C19.4989 21.4265 19.3517 21.6035 19.2484 21.8062C19.1452 22.0089 19.0885 22.232 19.0826 22.4594C19.0766 22.6868 19.1215 22.9126 19.214 23.1204L19.6076 24.0355C19.646 24.1243 19.718 24.1942 19.8079 24.2299C19.8978 24.2656 19.9982 24.2642 20.087 24.226C20.1758 24.1878 20.2459 24.1158 20.2817 24.026C20.3176 23.9362 20.3163 23.8358 20.2782 23.7469L19.8846 22.8319C19.8066 22.6627 19.7905 22.4715 19.8389 22.2917C19.8874 22.1118 19.9974 21.9546 20.1498 21.8475C20.2815 21.7606 20.4356 21.7139 20.5933 21.7132C20.7511 21.7125 20.9056 21.7578 21.038 21.8435C21.1704 21.9293 21.275 22.0518 21.3389 22.196C21.4027 22.3402 21.4232 22.5 21.3977 22.6556L21.2185 23.7478L21.2128 23.7721C21.2079 23.7935 21.203 23.8148 21.1975 23.8358C21.1727 23.9287 21.1856 24.0275 21.2332 24.1109C21.2809 24.1943 21.3595 24.2555 21.452 24.2813C21.5446 24.3071 21.6435 24.2954 21.7275 24.2487C21.8114 24.202 21.8735 24.1241 21.9004 24.0319C21.9119 24.0058 21.9201 23.9783 21.9249 23.9502L21.9344 23.8918L21.9414 23.863C21.9448 23.8491 21.9482 23.8354 21.9514 23.8213C21.9753 23.6903 22.0138 23.5624 22.066 23.4399C22.0994 23.376 22.1461 23.3201 22.203 23.2758C22.2599 23.2316 22.3257 23.2001 22.3958 23.1835C22.5429 23.1535 22.6022 23.3033 22.6121 23.3324L22.6155 23.3426C22.6559 23.5172 22.6685 23.6971 22.6527 23.8756C22.6376 24.0462 22.6775 24.2171 22.7666 24.3634Z" fill="#00D974"/>
<path d="M7.43774 24.4388C7.53978 24.4937 7.65385 24.5225 7.76974 24.5225C7.88563 24.5225 7.9997 24.4937 8.10174 24.4388C10.0786 23.3735 11.8709 21.9966 13.4096 20.361C14.3621 19.3536 14.8909 18.0187 14.8866 16.6323V8.73219L7.76975 7.17004L0.648586 8.73219V16.6323C0.644288 18.0187 1.17309 19.3536 2.12557 20.361C3.66497 21.9977 5.45883 23.3747 7.43773 24.4388L7.43774 24.4388Z" fill="#00D974"/>
<path d="M26.4048 3.43377H23.0125L22.6654 1.49256C22.6291 1.32596 22.5369 1.17677 22.4042 1.06968C22.2715 0.962594 22.1062 0.904032 21.9357 0.903688H14.234C14.0633 0.903395 13.8976 0.961723 13.7648 1.06891C13.632 1.17611 13.5399 1.32566 13.5042 1.49256L13.1593 3.43377H9.76477C9.01597 3.43523 8.29565 3.72096 7.74946 4.23318C7.20326 4.74541 6.87194 5.44593 6.82248 6.1931L7.76889 5.98487L8.69847 6.18889C8.7432 5.9387 8.87456 5.71224 9.06952 5.5492C9.26448 5.38615 9.51061 5.29692 9.76476 5.29715L23.3448 5.30135V5.29715H26.4048C26.6929 5.29762 26.969 5.41239 27.1724 5.61626C27.3759 5.82014 27.4901 6.09644 27.49 6.38448V26.1477C27.4893 26.4353 27.3748 26.7109 27.1714 26.9143C26.9681 27.1177 26.6924 27.2322 26.4048 27.2329H9.76477C9.47706 27.2326 9.20123 27.1181 8.99778 26.9147C8.79434 26.7113 8.67989 26.4354 8.67954 26.1477V25.441C8.66903 25.4474 8.66062 25.4516 8.65011 25.4579C8.37981 25.6042 8.0773 25.6808 7.76994 25.6808C7.46259 25.6808 7.16008 25.6042 6.88978 25.4579C6.86453 25.4453 6.83929 25.4305 6.81616 25.4179V26.1477C6.81745 26.9293 7.12852 27.6786 7.68122 28.2313C8.23391 28.784 8.98315 29.095 9.76477 29.0963H26.4048C27.1861 29.0946 27.9349 28.7833 28.4872 28.2307C29.0394 27.678 29.3502 26.929 29.3513 26.1477V6.38447C29.3506 5.60285 29.0401 4.85339 28.4878 4.30031C27.9355 3.74722 27.1865 3.43562 26.4048 3.43377Z" fill="#00D974"/>
<path d="M17.0243 15.7648H20.612C20.6716 15.7649 20.7308 15.7532 20.7859 15.7305C20.8411 15.7077 20.8912 15.6743 20.9335 15.6321C20.9757 15.59 21.0092 15.5399 21.0321 15.4848C21.0549 15.4296 21.0667 15.3706 21.0667 15.3109C21.0667 15.2512 21.0549 15.1921 21.032 15.137C21.0091 15.0819 20.9756 15.0318 20.9333 14.9897C20.8911 14.9475 20.8409 14.9141 20.7857 14.8914C20.7306 14.8687 20.6714 14.857 20.6117 14.8572H17.0243C16.9646 14.857 16.9055 14.8687 16.8503 14.8914C16.7951 14.9142 16.745 14.9476 16.7027 14.9897C16.6605 15.0319 16.627 15.082 16.6041 15.1371C16.5812 15.1922 16.5695 15.2513 16.5695 15.311C16.5695 15.3707 16.5812 15.4298 16.6041 15.4849C16.627 15.54 16.6605 15.5901 16.7027 15.6322C16.745 15.6744 16.7951 15.7078 16.8503 15.7305C16.9055 15.7533 16.9646 15.7649 17.0243 15.7648Z" fill="#00D974"/>
<path d="M25.0196 12.0168C24.9775 11.9745 24.9276 11.9409 24.8725 11.9181C24.8174 11.8952 24.7584 11.8835 24.6988 11.8837H17.0243C16.904 11.8837 16.7885 11.9315 16.7034 12.0166C16.6183 12.1017 16.5704 12.2172 16.5704 12.3376C16.5704 12.4579 16.6183 12.5734 16.7034 12.6585C16.7885 12.7436 16.904 12.7915 17.0243 12.7915H24.6988C24.7885 12.7915 24.8763 12.7649 24.9509 12.7151C25.0256 12.6652 25.0838 12.5943 25.1181 12.5114C25.1525 12.4284 25.1614 12.3371 25.1439 12.2491C25.1264 12.1611 25.0831 12.0802 25.0196 12.0168Z" fill="#00D974"/>
</svg>
